<?xml version="1.0" encoding="UTF-8" standalone="no"?>
<svg width="17px" height="13px" viewBox="0 0 17 13" version="1.1" xmlns="http://www.w3.org/2000/svg" xmlns:xlink="http://www.w3.org/1999/xlink">
    <!-- Generator: Sketch 42 (36781) - http://www.bohemiancoding.com/sketch -->
    <title>dash-orange</title>
    <desc>Created with Sketch.</desc>
    <defs></defs>
    <g id="Activti" stroke="none" stroke-width="1" fill="none" fill-rule="evenodd" opacity="0.54">
        <g id="Activiti-dashboard---menu-expanded" transform="translate(-24.000000, -154.000000)">
            <g id="Group-4">
                <g id="ic_view_module_black_24px-" transform="translate(20.000000, 149.000000)">
                    <g id="ic_view_module_24px-copy">
                        <path d="M4,11 L9,11 L9,5 L4,5 L4,11 L4,11 Z M4,18 L9,18 L9,12 L4,12 L4,18 L4,18 Z M10,18 L15,18 L15,12 L10,12 L10,18 L10,18 Z M16,18 L21,18 L21,12 L16,12 L16,18 L16,18 Z M10,11 L15,11 L15,5 L10,5 L10,11 L10,11 Z M16,5 L16,11 L21,11 L21,5 L16,5 L16,5 Z" id="Shape" fill="#000000"></path>
                        <polygon id="Shape" points="0 0 24 0 24 24 0 24"></polygon>
                    </g>
                </g>
            </g>
        </g>
    </g>
</svg>