<?xml version="1.0" encoding="UTF-8" standalone="no"?>
<svg width="18px" height="21px" viewBox="0 0 18 21" version="1.1" xmlns="http://www.w3.org/2000/svg" xmlns:xlink="http://www.w3.org/1999/xlink">
    <!-- Generator: Sketch 42 (36781) - http://www.bohemiancoding.com/sketch -->
    <title>ic_library_24px copy</title>
    <desc>Created with Sketch.</desc>
    <defs></defs>
    <g id="Activti" stroke="none" stroke-width="1" fill="none" fill-rule="evenodd" opacity="0.54">
        <g id="Activiti-dashboard---menu-expanded-all" transform="translate(-23.000000, -199.000000)">
            <g id="Group-4">
                <g id="Group-10">
                    <g id="menu">
                        <g id="Group-3">
                            <g id="Group-9">
                                <g id="ic_assignment_black_24px-2" transform="translate(20.000000, 198.000000)">
                                    <g id="Group">
                                        <g>
                                            <polygon id="Shape" points="0 0 24 0 24 25 0 25"></polygon>
                                            <path d="M19,3.125 L14.82,3.125 C14.4,1.91666667 13.3,1.04166667 12,1.04166667 C10.7,1.04166667 9.6,1.91666667 9.18,3.125 L5,3.125 C3.9,3.125 3,4.0625 3,5.20833333 L3,19.7916667 C3,20.9375 3.9,21.875 5,21.875 L19,21.875 C20.1,21.875 21,20.9375 21,19.7916667 L21,5.20833333 C21,4.0625 20.1,3.125 19,3.125 Z M12,3.125 C12.55,3.125 13,3.59375 13,4.16666667 C13,4.73958333 12.55,5.20833333 12,5.20833333 C11.45,5.20833333 11,4.73958333 11,4.16666667 C11,3.59375 11.45,3.125 12,3.125 Z M14,17.7083333 L7,17.7083333 L7,15.625 L14,15.625 L14,17.7083333 Z M17,13.5416667 L7,13.5416667 L7,11.4583333 L17,11.4583333 L17,13.5416667 Z M17,9.375 L7,9.375 L7,7.29166667 L17,7.29166667 L17,9.375 Z" id="Shape" fill="#000000" fill-rule="nonzero"></path>
                                        </g>
                                    </g>
                                </g>
                            </g>
                        </g>
                    </g>
                </g>
            </g>
        </g>
    </g>
</svg>